<svg width="211" height="74" viewBox="0 0 211 74" fill="none" xmlns="http://www.w3.org/2000/svg">
<g clip-path="url(#clip0_7426_59782)">
<g clip-path="url(#clip1_7426_59782)">
<g clip-path="url(#clip2_7426_59782)">
<g clip-path="url(#clip3_7426_59782)">
<g clip-path="url(#clip4_7426_59782)">
<mask id="mask0_7426_59782" style="mask-type:luminance" maskUnits="userSpaceOnUse" x="61" y="29" width="89" height="28">
<path d="M149.271 29.8H61.6665V56.2001H149.271V29.8Z" fill="white"/>
</mask>
<g mask="url(#mask0_7426_59782)">
<path fill-rule="evenodd" clip-rule="evenodd" d="M112.218 47.8225C113.871 47.6264 117.487 47.1976 118.131 48.0242C118.783 48.8588 117.408 52.2911 116.794 53.8254L116.793 53.8282C116.606 54.2934 117.006 54.4802 117.426 54.1294C120.16 51.8452 120.862 47.0594 120.305 46.3692C119.748 45.6828 114.974 45.0917 112.064 47.1395C111.614 47.4522 111.69 47.887 112.19 47.8259L112.218 47.8225ZM97.1916 56.2001C103.545 56.2001 110.924 54.198 116.014 50.4457C116.857 49.8203 116.136 48.8898 115.275 49.2559C109.57 51.6774 103.365 52.8443 97.7254 52.8443C89.3628 52.8443 81.267 50.5524 74.7194 46.7429C74.1474 46.4074 73.7203 46.9945 74.1969 47.4254C80.264 52.9054 88.2835 56.2001 97.1916 56.2001Z" fill="#FF9900"/>
<path fill-rule="evenodd" clip-rule="evenodd" d="M105.2 38.4564V38.6004C105.201 39.5935 105.202 40.4365 104.693 41.3317C104.262 42.0944 103.575 42.5634 102.817 42.5634C101.776 42.5634 101.165 41.7702 101.165 40.5996C101.165 38.2886 103.236 37.8691 105.2 37.8691V38.4564ZM107.934 45.065C107.755 45.2251 107.496 45.2366 107.294 45.1298C106.528 44.4937 106.295 44.1476 105.939 43.619C105.877 43.5266 105.811 43.4283 105.738 43.3222C104.25 44.84 103.194 45.2937 101.268 45.2937C98.9841 45.2937 97.2109 43.8866 97.2109 41.0685C97.2109 38.8682 98.4007 37.3696 100.101 36.6374C101.336 36.0939 102.98 35.9257 104.405 35.7798C104.68 35.7517 104.946 35.7245 105.2 35.6955V35.3447C105.2 35.2791 105.2 35.2122 105.201 35.1445C105.206 34.5471 105.211 33.8809 104.868 33.3808C104.54 32.8813 103.907 32.6753 103.347 32.6753C102.313 32.6753 101.394 33.2054 101.169 34.3036C101.123 34.5477 100.944 34.7879 100.696 34.7994L98.0689 34.5172C97.8477 34.4676 97.5999 34.2884 97.6647 33.949C98.2672 30.761 101.15 29.8 103.728 29.8C105.047 29.8 106.771 30.1509 107.812 31.15C109.025 32.2823 109.017 33.7627 109.007 35.3837C109.007 35.526 109.006 35.6694 109.006 35.8137V40.0389C109.006 41.1727 109.425 41.738 109.868 42.3346C109.921 42.4063 109.975 42.4784 110.028 42.552C110.199 42.796 110.237 43.0897 110.016 43.2727C109.463 43.7341 108.479 44.5921 107.938 45.0726L107.934 45.065ZM77.0841 45.1032H79.7954C80.0853 45.1032 80.3179 44.8782 80.3179 44.5998V37.2247L80.3176 37.0492C80.315 35.4585 80.3115 33.3885 82.1902 33.3885C83.9194 33.3885 83.8899 35.2302 83.8659 36.7299C83.8631 36.9003 83.8605 37.0663 83.8605 37.2247L83.8643 44.5998C83.8643 44.8668 84.0778 45.0841 84.3524 45.1032H87.0599C87.3497 45.1032 87.5823 44.8782 87.5823 44.5998V37.2247L87.5821 37.0333C87.58 36.255 87.5774 35.2061 87.8341 34.5592C88.1123 33.8575 88.7989 33.419 89.4547 33.419C90.2403 33.419 90.8465 33.6821 91.0487 34.6164C91.153 35.0645 91.1389 36.1007 91.1293 36.7942C91.127 36.962 91.1249 37.1103 91.1249 37.2247V44.5998C91.1249 44.8668 91.3424 45.0841 91.6131 45.1032H94.3205C94.6103 45.1032 94.843 44.8782 94.843 44.5998L94.8469 35.8176C94.8469 35.6033 94.8505 35.3848 94.8541 35.164C94.8759 33.8487 94.8989 32.4576 94.1642 31.4551C93.4053 30.4026 92.1622 29.9336 91.0258 29.9336C89.428 29.9336 87.937 30.7534 87.2811 32.5114C86.5184 30.7534 85.4583 29.9336 83.7614 29.9336C82.0911 29.9336 80.8517 30.7534 80.192 32.5114H80.1424V30.6924C80.1233 30.4407 79.9137 30.2386 79.6505 30.2272H77.1223C76.8325 30.2272 76.5998 30.4484 76.5998 30.7267V44.6418C76.6189 44.8896 76.8248 45.0841 77.0841 45.1032ZM112.304 30.6924V32.683C112.304 32.9804 112.533 33.1825 112.819 33.1825H117.476L112.125 40.855C111.801 41.3469 111.797 41.8999 111.797 42.224V44.2413C111.797 44.5311 112.121 44.8666 112.43 44.6989C115.462 43.0897 119.104 43.246 121.846 44.6836C122.181 44.8591 122.501 44.5197 122.501 44.2299V42.1058C122.475 41.8198 122.379 41.53 122.029 41.3317C120.473 40.4546 118.661 40.1991 116.945 40.2411L121.563 33.6478C121.991 33.0567 122.231 32.683 122.235 32.397V30.6924C122.235 30.3949 122.006 30.189 121.72 30.189H112.808C112.533 30.189 112.304 30.3911 112.304 30.6924ZM129.907 29.9336C133.93 29.9336 136.107 33.3885 136.107 37.7815C136.107 42.0258 133.701 45.393 129.907 45.393C125.956 45.393 123.805 41.938 123.805 37.6328C123.805 33.3008 125.983 29.9336 129.907 29.9336ZM129.929 32.7745C127.931 32.7745 127.805 35.4973 127.805 37.1942V37.2567C127.805 38.9822 127.805 42.5253 129.907 42.5253C132.008 42.5253 132.107 39.5966 132.107 37.812C132.107 36.6375 132.057 35.2342 131.703 34.1206C131.398 33.152 130.791 32.7745 129.929 32.7745ZM138.624 45.1032H141.324C141.614 45.1032 141.85 44.8782 141.854 44.5998V37.1065C141.854 36.1684 141.904 35.3219 142.285 34.4715C142.586 33.8003 143.193 33.358 143.852 33.358C145.581 33.358 145.564 35.255 145.552 36.7436L145.551 36.7458C145.55 36.8693 145.549 36.99 145.549 37.1065V44.6646C145.576 44.9011 145.782 45.0841 146.03 45.1032H148.749C149.016 45.1032 149.241 44.9086 149.271 44.6646V35.9053C149.271 34.5592 149.271 32.6868 148.562 31.5733C147.799 30.3721 146.613 29.9336 145.397 29.9336C143.525 29.9336 142.461 30.8411 141.702 32.744H141.652V30.6162C141.599 30.3988 141.404 30.2386 141.168 30.2272H138.655C138.38 30.2272 138.155 30.4255 138.132 30.681L138.136 44.5998C138.136 44.8668 138.354 45.0841 138.624 45.1032ZM69.6556 38.6007C69.6556 38.553 69.6555 38.5051 69.6555 38.4567V37.8694C67.6954 37.8694 65.6248 38.2889 65.6248 40.5998C65.6248 41.7705 66.2311 42.5637 67.2722 42.5637C68.0348 42.5637 68.7174 42.0946 69.1483 41.3319C69.6578 40.4368 69.6568 39.5937 69.6556 38.6007ZM71.7491 45.13C71.9512 45.2368 72.2105 45.2254 72.3897 45.0652L72.3973 45.0729C72.9388 44.5924 73.9227 43.7344 74.4757 43.2729C74.6968 43.0899 74.6587 42.7963 74.4832 42.5522C74.4301 42.4786 74.3767 42.4066 74.3235 42.3349C73.8807 41.7382 73.4613 41.1729 73.4613 40.0393V35.814C73.4613 35.6697 73.4621 35.5263 73.4629 35.384C73.4722 33.763 73.4806 32.2826 72.2677 31.1503C71.2266 30.1512 69.503 29.8003 68.1836 29.8003C65.6057 29.8003 62.7266 30.7613 62.1203 33.9493C62.0593 34.2887 62.3033 34.4679 62.5245 34.5175L65.1557 34.7997C65.3998 34.7882 65.579 34.548 65.6248 34.3039C65.8498 33.2057 66.7726 32.6756 67.806 32.6756C68.3628 32.6756 68.9958 32.8816 69.3276 33.3811C69.6664 33.8807 69.6612 34.5462 69.6566 35.1432C69.656 35.2115 69.6555 35.2789 69.6555 35.345V35.6958C69.4017 35.7248 69.1352 35.752 68.8606 35.7801C67.4355 35.926 65.7912 36.0942 64.557 36.6377C62.8601 37.3699 61.6665 38.8685 61.6665 41.0689C61.6665 43.887 63.4435 45.2941 65.7239 45.2941C67.6535 45.2941 68.706 44.8402 70.1932 43.3226C70.2717 43.4354 70.3417 43.5391 70.4077 43.6366C70.7582 44.1555 70.9915 44.501 71.7491 45.13Z" fill="black"/>
</g>
</g>
</g>
</g>
</g>
</g>
<defs>
<clipPath id="clip0_7426_59782">
<path d="M0.333252 8C0.333252 3.58172 3.91497 0 8.33325 0H203C207.418 0 211 3.58172 211 8V66C211 70.4183 207.418 74 203 74H8.33326C3.91498 74 0.333252 70.4183 0.333252 66V8Z" fill="white"/>
</clipPath>
<clipPath id="clip1_7426_59782">
<rect width="88" height="48" fill="white" transform="translate(61.6665 13)"/>
</clipPath>
<clipPath id="clip2_7426_59782">
<rect width="87.6" height="48" fill="white" transform="translate(61.6665 13)"/>
</clipPath>
<clipPath id="clip3_7426_59782">
<rect width="87.6" height="48" fill="white" transform="translate(61.6665 13)"/>
</clipPath>
<clipPath id="clip4_7426_59782">
<rect width="87.6" height="28.8" fill="white" transform="translate(61.6665 27.4)"/>
</clipPath>
</defs>
</svg>
