<svg width="212" height="74" viewBox="0 0 212 74" fill="none" xmlns="http://www.w3.org/2000/svg">
<g clip-path="url(#clip0_7426_59790)">
<g clip-path="url(#clip1_7426_59790)">
<g clip-path="url(#clip2_7426_59790)">
<path d="M55.4968 35.7778C55.1544 35.3279 54.6751 34.9931 54.1262 34.8203C53.853 34.7336 53.5674 34.6892 53.2799 34.6888H48.042C48.0711 35.3742 48.3719 36.0223 48.8819 36.4985C49.3919 36.9748 50.0719 37.2425 50.7805 37.2462H53.4148L51.0486 44.2968C51.731 44.4815 52.4606 44.4047 53.0861 44.0825C53.7116 43.7603 54.1849 43.2174 54.4077 42.5663L55.8871 38.161C56.0207 37.7621 56.055 37.3383 55.9871 36.9241C55.9193 36.5099 55.7513 36.1172 55.4968 35.7778V35.7778Z" fill="#0731A1"/>
<path d="M64.1648 41.9459L60.2931 39.2231C59.943 38.9782 59.5381 38.8167 59.1113 38.7518C58.6845 38.6869 58.248 38.7204 57.8371 38.8496C57.4262 38.9788 57.0527 39.2 56.7468 39.4952C56.4409 39.7905 56.2114 40.1515 56.0769 40.5488L54.458 45.3702C55.1405 45.5589 55.872 45.484 56.4985 45.1612C57.1251 44.8385 57.5978 44.293 57.8171 43.6397L58.6266 41.2155L58.7354 41.2913L64.8223 45.5721C65.2188 45.0024 65.3713 44.306 65.2479 43.6296C65.1244 42.9532 64.7345 42.3496 64.1603 41.9459H64.1648Z" fill="#0731A1"/>
<path d="M67.8124 31.7253C67.6687 31.7034 67.5234 31.6923 67.378 31.6923C66.801 31.692 66.239 31.8697 65.7735 32.1997L61.9017 34.9225C61.6105 35.1269 61.3638 35.385 61.1758 35.6819C60.9878 35.9788 60.8621 36.3086 60.806 36.6526C60.7498 36.9965 60.7643 37.3478 60.8487 37.6863C60.933 38.0248 61.0855 38.3439 61.2974 38.6253C61.4655 38.8508 61.6695 39.0491 61.9017 39.2129L66.1395 42.1933C66.536 41.6236 66.6886 40.9272 66.5652 40.2508C66.4417 39.5744 66.0518 38.9707 65.4776 38.567L63.3461 37.0698L63.4541 36.9932L69.5419 32.7133C69.1163 32.1829 68.4978 31.8296 67.8124 31.7253Z" fill="#0731A1"/>
<path d="M58.7931 31.6875C58.9277 32.0848 59.1572 32.4458 59.4631 32.7411C59.769 33.0363 60.1425 33.2575 60.5534 33.3867C60.9642 33.5159 61.4008 33.5494 61.8276 33.4845C62.2543 33.4196 62.6592 33.2581 63.0094 33.0132L67.2472 30.0337C66.8097 29.4928 66.1724 29.1373 65.4695 29.042C64.7667 28.9467 64.053 29.119 63.4788 29.5227L61.3473 31.0216L58.9811 23.9711C58.315 24.2065 57.7691 24.6826 57.4582 25.2994C57.1472 25.9163 57.0954 26.6257 57.3137 27.2787L58.7931 31.6875Z" fill="#0731A1"/>
<path d="M49.9378 33.7662H54.7243C55.1565 33.7655 55.5824 33.6661 55.9674 33.4759C56.3524 33.2858 56.6856 33.0103 56.9398 32.672C57.194 32.3337 57.362 31.942 57.4303 31.529C57.4985 31.1159 57.465 30.693 57.3324 30.2949L55.7136 25.4735C55.0498 25.712 54.5063 26.1885 54.1959 26.8044C53.8854 27.4202 53.8318 28.1281 54.0461 28.7812L54.8601 31.2062H47.2002C47.2284 31.8919 47.5287 32.5407 48.0387 33.0175C48.5486 33.4943 49.2288 33.7625 49.9378 33.7662V33.7662Z" fill="#0731A1"/>
<path d="M158.681 35.1775L158.621 35.2707L158.423 32.7594H156.019V44.1744H158.62V37.9072C158.813 37.3551 159.12 36.8467 159.522 36.4128C159.924 35.9789 160.413 35.6285 160.959 35.383C161.802 35.053 162.74 35.0322 163.597 35.3246V32.7586C161.648 32.406 159.902 33.2652 158.681 35.1775Z" fill="#0731A1"/>
<path d="M121.03 27.354H118.427V44.1753H121.03V27.354Z" fill="#0731A1"/>
<path d="M125.397 27.354H122.794V44.1753H125.397V27.354Z" fill="#0731A1"/>
<path d="M141.67 27.354H139.067V44.1753H141.67V27.354Z" fill="#0731A1"/>
<path d="M148.541 32.4119C146.908 32.3684 145.283 32.6597 143.775 33.2666V35.3174C145.052 34.7764 146.427 34.4842 147.822 34.4574C150.34 34.4574 151.63 35.5959 151.651 37.8408V37.9122L151.592 37.8695C150.454 37.1199 149.1 36.7389 147.725 36.7815C146.458 36.7425 145.213 37.1067 144.18 37.8182C143.729 38.1467 143.366 38.5738 143.118 39.0646C142.871 39.5554 142.747 40.0959 142.757 40.6419C142.757 42.8806 144.58 44.4448 147.189 44.4448C148.094 44.4836 148.994 44.2957 149.802 43.8992C150.61 43.5027 151.299 42.9112 151.802 42.1817L151.863 42.0859L152.017 44.175H154.25V38.3239C154.308 37.5173 154.199 36.7078 153.931 35.9422C153.662 35.1766 153.24 34.4702 152.687 33.8638C152.134 33.3626 151.481 32.9755 150.768 32.7259C150.055 32.4764 149.298 32.3695 148.541 32.4119V32.4119ZM151.599 39.6365C151.335 40.401 150.84 41.0715 150.178 41.5615C149.517 42.0516 148.719 42.3388 147.887 42.3862C146.358 42.3862 145.337 41.6203 145.337 40.4808C145.337 39.2779 146.416 38.5311 148.143 38.5311C149.38 38.5163 150.588 38.8905 151.586 39.5973L151.607 39.613L151.599 39.6365Z" fill="#0731A1"/>
<path d="M131.928 42.2636C130.407 42.2636 129.424 41.1799 129.424 39.5026V32.7593H126.821V39.7959C126.821 42.6205 128.479 44.4449 131.043 44.4449C131.818 44.453 132.588 44.3118 133.306 44.0296C134.025 43.7473 134.678 43.3296 135.229 42.8007L135.288 42.7371L135.36 44.1742H137.638V32.7593H135.059V40.5062L135.051 40.5158C134.698 41.0142 134.235 41.4299 133.694 41.7324C133.154 42.0348 132.55 42.2163 131.928 42.2636V42.2636Z" fill="#0731A1"/>
<path d="M111.613 32.4126C110.806 32.3818 110.001 32.5145 109.25 32.8023C108.499 33.0902 107.819 33.5267 107.253 34.0839C106.173 35.2642 105.606 36.8019 105.669 38.3769C105.632 39.2083 105.774 40.038 106.086 40.8134C106.398 41.5888 106.873 42.2931 107.481 42.8814C108.689 43.9296 110.266 44.4902 111.888 44.4482C113.384 44.4515 114.849 44.0362 116.107 43.2522L115.095 41.4704C114.102 41.9697 113.003 42.2419 111.884 42.266C111.033 42.3224 110.192 42.0654 109.528 41.5466C108.865 41.0278 108.428 40.2855 108.307 39.4684L108.298 39.4258H116.956C116.983 39.1908 116.997 38.9546 116.998 38.7181C117.091 37.0589 116.59 35.4195 115.578 34.0769C115.09 33.5271 114.48 33.0917 113.793 32.8034C113.106 32.5151 112.361 32.3815 111.613 32.4126ZM108.195 37.6692V37.63C108.199 37.2069 108.291 36.7888 108.466 36.4011C108.642 36.0135 108.896 35.6644 109.215 35.3749C109.534 35.0855 109.911 34.8618 110.322 34.7174C110.733 34.5729 111.17 34.5108 111.606 34.5348C113.353 34.5348 114.4 35.6341 114.552 37.6309V37.6692H108.195Z" fill="#0731A1"/>
<path d="M101.617 42.2664C100.814 42.2776 100.026 42.0559 99.3548 41.6298C98.6831 41.2037 98.1587 40.5927 97.8491 39.8755C97.5394 39.1583 97.4588 38.3679 97.6175 37.606C97.7762 36.844 98.1669 36.1456 98.7395 35.6005C99.5232 34.9032 100.553 34.5229 101.617 34.5377C102.639 34.542 103.639 34.8168 104.511 35.3324L105.578 33.5959C104.414 32.8224 103.033 32.4107 101.621 32.4156C98.4041 32.4156 94.9424 34.2983 94.9424 38.4321C94.9424 41.3298 97.0325 44.4486 101.621 44.4486C103.044 44.4543 104.435 44.0369 105.605 43.2526L104.518 41.469C103.637 41.9699 102.639 42.2443 101.617 42.2664Z" fill="#0731A1"/>
<path d="M77.631 42.2643C76.1102 42.2643 75.1272 41.1807 75.1272 39.5033V32.76H72.5244V39.7967C72.5244 42.6212 74.181 44.4457 76.746 44.4457C77.5214 44.4539 78.2907 44.3128 79.0091 44.0305C79.7275 43.7482 80.3808 43.3304 80.9308 42.8014L80.991 42.7379L81.0639 44.175H83.3419V32.76H80.7626V40.5069L80.7554 40.5165C80.4025 41.0151 79.9387 41.4309 79.398 41.7334C78.8574 42.0358 78.2536 42.2173 77.631 42.2643Z" fill="#FC131D"/>
<path d="M87.3479 35.7829C87.3479 35.1449 87.7553 34.4372 89.7285 34.4372C91.0068 34.4133 92.2693 34.7134 93.3908 35.3076V33.1646C92.2285 32.6637 90.9694 32.4076 89.697 32.4134C86.6158 32.4134 84.7686 33.8575 84.7686 35.7829C84.7686 36.9362 85.3612 38.0774 87.5233 38.8477C89.9426 39.7095 91.5596 39.8157 91.5596 41.0769C91.5596 42.0623 90.5469 42.3913 89.4524 42.3608C87.867 42.3136 86.321 41.8714 84.9637 41.0769C84.9637 41.2858 84.9637 43.4933 84.9637 43.4933C86.2774 44.1105 87.717 44.4358 89.1772 44.4455C92.3601 44.4455 94.1282 43.0015 94.1282 41.0761C94.1282 39.1507 92.9824 38.1966 90.2789 37.6091C87.5755 37.0216 87.3479 36.4201 87.3479 35.7829Z" fill="#FC131D"/>
<path d="M160.655 43.0475V42.822H161.846V43.0475H161.389V44.1738H161.112V43.0475H160.655ZM162.482 42.822L162.842 43.79L163.201 42.822H163.598V44.1738H163.342V43.0823L162.955 44.173H162.732L162.342 43.0823V44.173H162.085V42.8212L162.482 42.822Z" fill="#0731A1"/>
</g>
</g>
</g>
<defs>
<clipPath id="clip0_7426_59790">
<path d="M0.666748 8C0.666748 3.58172 4.24847 0 8.66675 0H203.333C207.752 0 211.333 3.58172 211.333 8V66C211.333 70.4183 207.752 74 203.333 74H8.66675C4.24848 74 0.666748 70.4183 0.666748 66V8Z" fill="white"/>
</clipPath>
<clipPath id="clip1_7426_59790">
<rect width="117.6" height="48" fill="white" transform="translate(47.2002 13)"/>
</clipPath>
<clipPath id="clip2_7426_59790">
<rect width="116.4" height="21.6" fill="white" transform="translate(47.2002 23.9711)"/>
</clipPath>
</defs>
</svg>
