<svg width="211" height="74" viewBox="0 0 211 74" fill="none" xmlns="http://www.w3.org/2000/svg">
<g clip-path="url(#clip0_7426_59794)">
<g clip-path="url(#clip1_7426_59794)">
<path d="M53.4794 32.9735C53.4211 32.7029 53.4211 32.4229 53.4794 32.1523C53.5364 31.8249 53.7174 31.5321 53.9848 31.3348C54.2521 31.1375 54.5853 31.0509 54.9149 31.0929C55.1074 31.0762 55.3012 31.1014 55.4831 31.1665C55.665 31.2317 55.8306 31.3354 55.9687 31.4705C56.1068 31.6057 56.2141 31.769 56.2832 31.9494C56.3524 32.1299 56.3817 32.3231 56.3692 32.5159V33.4875H60.2809V32.3842C60.2809 28.9741 57.203 28.4287 54.9901 28.4287C52.2068 28.4287 49.9313 29.3502 49.5113 31.9141C49.3726 32.6114 49.3726 33.3293 49.5113 34.0266C50.1883 37.2299 55.78 38.1577 56.5698 40.1887C56.6829 40.567 56.6829 40.9701 56.5698 41.3484C56.4985 41.687 56.3003 41.9854 56.0158 42.1824C55.7314 42.3795 55.3823 42.4601 55.0403 42.4078C54.8403 42.4323 54.6375 42.4133 54.4456 42.3521C54.2537 42.2909 54.0772 42.1889 53.9284 42.0531C53.7796 41.9174 53.6618 41.7511 53.5832 41.5656C53.5047 41.3802 53.4671 41.1799 53.4731 40.9786V39.4678H49.2668V40.6714C49.2668 44.1756 52.0188 45.2287 54.965 45.2287C57.7985 45.2287 60.1242 44.2634 60.5003 41.6368C60.6418 40.788 60.6418 39.9217 60.5003 39.0729C59.8734 35.7819 53.9244 34.8102 53.4794 32.9735ZM104.469 33.0111C104.416 32.7441 104.416 32.4694 104.469 32.2024C104.527 31.8791 104.707 31.5904 104.972 31.3957C105.236 31.201 105.566 31.1151 105.892 31.1556C106.082 31.1388 106.274 31.1635 106.454 31.2281C106.634 31.2927 106.798 31.3956 106.935 31.5297C107.071 31.6638 107.177 31.8259 107.245 32.0048C107.312 32.1837 107.341 32.3752 107.327 32.566V33.5251H111.195V32.4344C111.195 29.0556 108.167 28.5227 105.973 28.5227C103.209 28.5227 100.958 29.4317 100.544 31.9768C100.417 32.6681 100.429 33.378 100.582 34.0642C101.253 37.2362 106.769 38.1514 107.572 40.1574C107.677 40.5325 107.677 40.9294 107.572 41.3045C107.453 41.8248 107.101 42.3514 106.061 42.3514C105.863 42.3767 105.662 42.359 105.472 42.2996C105.282 42.2402 105.107 42.1405 104.959 42.0072C104.81 41.8739 104.693 41.7102 104.614 41.5273C104.534 41.3443 104.496 41.1465 104.5 40.9472V39.4177H100.338V40.615C100.338 44.0816 103.052 45.1284 105.979 45.1284C108.781 45.1284 111.095 44.1693 111.464 41.5804C111.606 40.74 111.606 39.8819 111.464 39.0415C110.794 35.8069 104.914 34.829 104.469 33.0111V33.0111ZM140.068 41.5553L136.351 28.9302H130.534V44.4326H134.383L134.157 31.4063L138.144 44.4326H143.723V28.9302H139.849L140.068 41.5553ZM66.0982 28.9302L63.1958 44.6018H67.4334L69.6212 30.0899L71.7588 44.6018H75.965L73.0752 28.9302H66.0982ZM89.7812 28.9302L87.8003 41.1854L85.8257 28.9302H79.4316L79.0931 44.6018H83.011L83.1176 30.0899L85.8131 44.6018H89.7874L92.483 30.0899L92.5895 44.6018H96.52L96.1689 28.9302H89.7812ZM126.215 28.9302H122.247V40.5272C122.258 40.7369 122.245 40.9472 122.209 41.1541C122.116 41.4806 121.919 41.768 121.648 41.9726C121.377 42.1772 121.047 42.2879 120.708 42.2879C120.368 42.2879 120.038 42.1772 119.767 41.9726C119.496 41.768 119.299 41.4806 119.206 41.1541C119.168 40.9475 119.155 40.7369 119.169 40.5272V28.9302H115.207V40.1699C115.207 40.4583 115.207 41.0538 115.244 41.2042C115.52 44.1317 117.827 45.0845 120.711 45.0845C123.594 45.0845 125.907 44.1317 126.183 41.2042C126.216 40.8605 126.226 40.515 126.215 40.1699V28.9302ZM153.439 35.8257V38.1138H155.044V40.383C155.053 40.593 155.038 40.8032 155 41.0099C154.886 41.344 154.67 41.6341 154.383 41.8394C154.096 42.0448 153.752 42.1553 153.399 42.1553C153.046 42.1553 152.701 42.0448 152.414 41.8394C152.127 41.6341 151.911 41.344 151.797 41.0099C151.766 40.8025 151.751 40.5928 151.753 40.383V33.1992C151.747 32.9507 151.77 32.7025 151.822 32.4595C151.927 32.1257 152.135 31.8341 152.417 31.6271C152.699 31.4201 153.04 31.3084 153.389 31.3084C153.739 31.3084 154.08 31.4201 154.361 31.6271C154.643 31.8341 154.852 32.1257 154.956 32.4595C154.989 32.6668 155.006 32.8764 155.007 33.0863V33.9577H158.918V33.4436C158.937 33.097 158.937 32.7496 158.918 32.403C158.624 29.463 156.198 28.529 153.421 28.529C150.644 28.529 148.261 29.4693 147.917 32.403C147.917 32.6726 147.835 33.1553 147.835 33.4436V40.032C147.836 40.3777 147.857 40.7231 147.898 41.0663C148.155 43.9248 150.637 44.9404 153.408 44.9404C156.179 44.9404 158.661 43.9248 158.918 41.0663C158.962 40.5398 158.968 40.3204 158.975 40.032V35.832L153.439 35.8257Z" fill="black"/>
</g>
</g>
<defs>
<clipPath id="clip0_7426_59794">
<path d="M0.333496 8C0.333496 3.58172 3.91522 0 8.3335 0H203C207.418 0 211 3.58172 211 8V66C211 70.4183 207.418 74 203 74H8.3335C3.91522 74 0.333496 70.4183 0.333496 66V8Z" fill="white"/>
</clipPath>
<clipPath id="clip1_7426_59794">
<rect width="112.8" height="48" fill="white" transform="translate(49.2668 13)"/>
</clipPath>
</defs>
</svg>
