<svg width="212" height="74" viewBox="0 0 212 74" fill="none" xmlns="http://www.w3.org/2000/svg">
<g clip-path="url(#clip0_7426_59778)">
<g clip-path="url(#clip1_7426_59778)">
<g clip-path="url(#clip2_7426_59778)">
<path d="M139.535 45.0263C139.276 45.0263 139.096 44.8515 139.096 44.5992V32.0674H134.722C134.463 32.0674 134.284 31.8926 134.284 31.6404V29.9121C134.284 29.6599 134.463 29.485 134.722 29.485H146.362C146.621 29.485 146.8 29.6599 146.8 29.9121V31.6404C146.8 31.8926 146.621 32.0674 146.362 32.0674H141.99V44.5992C141.99 44.8515 141.81 45.0263 141.551 45.0263H139.535ZM106.043 38.7694L103.747 32.3576L101.431 38.7694H106.043ZM111.133 44.5199C111.233 44.7722 111.074 45.0263 110.794 45.0263H108.719C108.419 45.0263 108.239 44.8912 108.139 44.6172L106.961 41.314H100.514L99.3346 44.6172C99.2347 44.8894 99.055 45.0263 98.7551 45.0263H96.7998C96.5406 45.0263 96.361 44.774 96.4609 44.5199L101.871 29.8707C101.971 29.5986 102.151 29.4832 102.449 29.4832H105.125C105.425 29.4832 105.623 29.5986 105.723 29.8707L111.133 44.5199ZM126.638 42.9269C127.916 42.9269 128.773 42.325 129.473 41.296L126.24 37.9152C125.002 38.5964 124.204 39.2758 124.204 40.6364C124.204 41.9772 125.32 42.9269 126.638 42.9269ZM127.536 31.5412C126.5 31.5412 125.9 32.1828 125.9 33.037C125.9 33.6983 126.259 34.2804 127.077 35.1346C128.494 34.3381 129.094 33.8533 129.094 32.9973C129.094 32.2026 128.575 31.5412 127.536 31.5412ZM136.382 44.4821C136.641 44.7542 136.482 45.0263 136.161 45.0263H133.626C133.287 45.0263 133.106 44.9488 132.888 44.6947L131.371 43.0638C130.353 44.3848 128.934 45.3759 126.579 45.3759C123.665 45.3759 121.369 43.6657 121.369 40.7319C121.369 38.4775 122.607 37.2737 124.483 36.2627C123.565 35.2319 123.146 34.1453 123.146 33.1938C123.146 30.7844 124.883 29.1318 127.498 29.1318C130.173 29.1318 131.81 30.6672 131.81 32.9397C131.81 34.8823 130.373 35.969 128.855 36.7871L131.091 39.1389L132.349 37.0016C132.508 36.7493 132.688 36.652 133.008 36.652H134.945C135.265 36.652 135.445 36.8664 135.245 37.1962L133.008 40.9265L136.382 44.4821ZM116.46 45.0263C116.719 45.0263 116.899 44.8515 116.899 44.5992V32.0674H121.271C121.53 32.0674 121.709 31.8926 121.709 31.6404V29.9121C121.709 29.6599 121.53 29.485 121.271 29.485H109.631C109.372 29.485 109.193 29.6599 109.193 29.9121V31.6404C109.193 31.8926 109.372 32.0674 109.631 32.0674H114.003V44.5992C114.003 44.8515 114.183 45.0263 114.442 45.0263H116.46Z" fill="black"/>
<path d="M70.3569 47.4771C72.6177 49.1801 75.4544 50.2037 78.5317 50.2037C81.8998 50.2037 84.9698 48.9855 87.3139 46.987C87.3417 46.9635 87.3287 46.9455 87.3009 46.9635C86.2492 47.6465 83.2515 49.1405 78.5317 49.1405C74.4304 49.1405 71.8382 48.2502 70.3736 47.4537C70.3458 47.4393 70.3365 47.4591 70.3569 47.4771ZM79.4372 48.1403C82.7182 48.1403 86.3233 47.2699 88.4786 45.5453C89.0692 45.0768 89.6303 44.4514 90.1339 43.6098C90.4246 43.1269 90.706 42.552 90.9375 41.988C90.9486 41.9609 90.9301 41.9465 90.9097 41.9771C88.9044 44.8497 83.0978 46.6428 77.1023 46.6428C72.864 46.6428 68.3053 45.3236 66.5204 42.8043C66.5019 42.7809 66.4852 42.7917 66.4963 42.8187C68.1591 46.2589 73.2047 48.1403 79.4372 48.1403ZM75.8525 42.4313C69.0293 42.4313 65.8112 39.3371 65.228 37.225C65.2206 37.1944 65.2002 37.2016 65.2002 37.2286C65.2002 37.9387 65.2743 38.8577 65.4002 39.465C65.4594 39.7606 65.7075 40.2273 66.0704 40.5967C67.7221 42.2727 71.8419 44.6226 78.9761 44.6226C88.6952 44.6226 90.9171 41.4708 91.3708 40.4346C91.6966 39.6939 91.8633 38.3531 91.8633 37.2286C91.8633 36.9565 91.8559 36.7385 91.8448 36.524C91.8448 36.4898 91.8244 36.4862 91.817 36.5204C91.3319 39.0578 83.0274 42.4313 75.8525 42.4313ZM66.4852 31.662C66.0945 32.417 65.6612 33.6911 65.5316 34.3507C65.4761 34.6336 65.5002 34.7688 65.602 34.9796C66.4204 36.67 70.5569 39.3731 80.2056 39.3731C86.0918 39.3731 90.6653 37.9657 91.4059 35.3959C91.543 34.9237 91.5485 34.4228 91.3745 33.7506C91.1782 32.9991 90.8116 32.1215 90.5005 31.507C90.4894 31.4872 90.4727 31.489 90.4764 31.5142C90.5912 34.8841 80.9388 37.0574 76.0691 37.0574C70.7939 37.0574 66.3926 35.0102 66.3926 32.426C66.3926 32.1774 66.4445 31.9305 66.5111 31.671C66.5167 31.6457 66.4963 31.6421 66.4852 31.662ZM87.3361 27.5243C87.3917 27.609 87.4194 27.7009 87.4194 27.8235C87.4194 29.2652 82.8886 31.8151 75.6747 31.8151C70.3754 31.8151 69.383 29.9013 69.383 28.6831C69.383 28.2488 69.5533 27.8019 69.931 27.3513C69.9514 27.3243 69.9347 27.3135 69.9107 27.3333C69.2219 27.901 68.5905 28.5407 68.035 29.2309C67.7702 29.5571 67.6054 29.8454 67.6054 30.0202C67.6054 32.5432 74.1027 34.3723 80.1797 34.3723C86.6529 34.3723 89.5432 32.3143 89.5432 30.5068C89.5432 29.8599 89.284 29.4832 88.6248 28.7516C88.1953 28.2758 87.7898 27.8884 87.3602 27.5063C87.3361 27.4901 87.3213 27.5045 87.3361 27.5243ZM85.3512 26.0827C83.3533 24.9167 81.0333 24.2535 78.5317 24.2535C76.0136 24.2535 73.6231 24.9401 71.6179 26.1367C71.0161 26.4971 70.6772 26.7855 70.6772 27.1567C70.6772 28.2524 73.3047 29.4274 77.9651 29.4274C82.5775 29.4274 86.1548 28.1389 86.1548 26.8972C86.1548 26.6035 85.89 26.3962 85.3512 26.0827Z" fill="#009FDB"/>
</g>
</g>
</g>
<defs>
<clipPath id="clip0_7426_59778">
<path d="M0.666748 8C0.666748 3.58172 4.24847 0 8.66675 0H203.333C207.752 0 211.333 3.58172 211.333 8V66C211.333 70.4183 207.752 74 203.333 74H8.66675C4.24848 74 0.666748 70.4183 0.666748 66V8Z" fill="white"/>
</clipPath>
<clipPath id="clip1_7426_59778">
<rect width="81.6" height="48" fill="white" transform="translate(65.2002 13)"/>
</clipPath>
<clipPath id="clip2_7426_59778">
<rect width="81.6" height="31.2" fill="white" transform="matrix(1 0 0 -1 65.2002 52.6)"/>
</clipPath>
</defs>
</svg>
