<svg width="211" height="74" viewBox="0 0 211 74" fill="none" xmlns="http://www.w3.org/2000/svg">
<g clip-path="url(#clip0_7426_59786)">
<g clip-path="url(#clip1_7426_59786)">
<g clip-path="url(#clip2_7426_59786)">
<path d="M144.75 33.4344C144.75 32.5773 145.477 31.8573 146.342 31.8573C147.241 31.8573 147.933 32.6116 147.933 33.4344C147.933 34.2916 147.241 35.0116 146.342 35.0116C145.477 35.0116 144.75 34.3259 144.75 33.4344ZM147.622 33.4344C147.622 32.7144 147.034 32.2002 146.376 32.2002C145.615 32.2002 145.096 32.8173 145.096 33.4687C145.096 34.1202 145.615 34.7373 146.376 34.7373C146.999 34.703 147.622 34.1887 147.622 33.4344ZM146.791 34.3602C146.757 34.3259 146.722 34.1887 146.722 34.0516C146.722 33.7087 146.618 33.6402 146.342 33.6402H145.961V34.3602H145.65V32.543H146.411C146.826 32.543 147.034 32.7144 147.034 33.023C147.034 33.263 146.93 33.4002 146.688 33.4687C146.895 33.5373 146.999 33.6402 146.999 33.983C146.999 34.1544 147.034 34.2573 147.068 34.3259H146.791V34.3602ZM146.411 33.3316C146.653 33.3316 146.791 33.2287 146.791 33.0573C146.791 32.9202 146.688 32.8173 146.446 32.8173H145.996V33.3316H146.411Z" fill="black"/>
<path d="M85.6584 26.7145H89.8792V30.2459H85.6584V26.7145ZM85.6584 31.5145H89.8792V45.4345H85.6584V31.5145ZM75.2446 40.1545C74.4835 43.3088 71.6465 45.9145 67.8754 45.9145C63.62 45.9145 60.3333 42.5888 60.3333 38.4402C60.3333 34.3602 63.5508 31.0345 67.7716 31.0345C71.5081 31.0345 74.5181 33.4688 75.21 36.8973H70.9546C70.5048 35.9373 69.6745 34.943 67.91 34.943C66.9067 34.9088 66.0764 35.2859 65.4882 35.9373C64.9001 36.5888 64.5887 37.4802 64.5887 38.5088C64.5887 40.5316 65.938 42.0402 67.9446 42.0402C69.7091 42.0402 70.5394 41.0459 70.9892 40.1888H75.2446V40.1545ZM76.5247 31.5145H80.4688V33.5373C80.884 32.783 81.6105 31.5145 84.0323 31.5145V35.5602H83.8939C81.7489 35.5602 80.711 36.3488 80.711 38.3031V45.4345H76.5247V31.5145ZM140.114 35.0116H144.128V31.5145H140.114V26.7145H135.893V39.2288C135.893 43.6859 138.177 45.4345 143.09 45.4345H143.436V41.6973H143.297C141.152 41.6973 140.114 40.9088 140.114 38.9545V35.0116ZM105.932 40.1545C105.171 43.3088 102.369 45.9145 98.5631 45.9145C94.3077 45.9145 91.0209 42.5888 91.0209 38.4402C91.0209 34.3602 94.2385 31.0345 98.4593 31.0345C102.196 31.0345 105.206 33.4688 105.898 36.8973H101.642C101.192 35.9373 100.362 34.943 98.5977 34.943C97.5944 34.9088 96.7641 35.2859 96.1759 35.9373C95.5878 36.5888 95.2764 37.4802 95.2764 38.5088C95.2764 40.5316 96.6257 42.0402 98.6323 42.0402C100.397 42.0402 101.227 41.0459 101.677 40.1888H105.932V40.1545ZM123.992 39.8459C124.165 41.3888 125.583 42.4859 127.244 42.4859C128.49 42.4859 129.216 41.9716 129.666 41.3202H133.991C132.745 43.9602 130.358 45.9145 127.21 45.9145C123.196 45.9145 119.771 42.6573 119.771 38.5431C119.771 34.6345 122.85 31.0688 127.14 31.0688C129.285 31.0688 131.154 31.8916 132.468 33.263C133.921 34.8059 134.544 36.5888 134.544 38.4745C134.544 38.9202 134.51 39.3659 134.475 39.8459H123.992ZM130.323 36.8288C130.22 36.1088 129.355 34.463 127.175 34.463C124.995 34.463 124.13 36.1088 124.027 36.8288H130.323ZM111.745 41.3202L115.689 45.4688H121.639L114.72 38.3716L111.745 41.3202ZM111.329 26.7145H107.109V40.0173L111.329 35.8688V26.7145Z" fill="black"/>
<path d="M115.723 31.5144L107.109 40.0173V45.9144L121.674 31.5144H115.723Z" fill="#60A630"/>
</g>
</g>
</g>
<defs>
<clipPath id="clip0_7426_59786">
<path d="M0 8C0 3.58172 3.58172 0 8 0H202.667C207.085 0 210.667 3.58172 210.667 8V66C210.667 70.4183 207.085 74 202.667 74H8.00001C3.58173 74 0 70.4183 0 66V8Z" fill="white"/>
</clipPath>
<clipPath id="clip1_7426_59786">
<rect width="90" height="48" fill="white" transform="translate(60.3333 13)"/>
</clipPath>
<clipPath id="clip2_7426_59786">
<rect width="87.6" height="19.2" fill="white" transform="translate(60.3333 26.7145)"/>
</clipPath>
</defs>
</svg>
